<svg id="Camada_1" data-name="Camada 1" xmlns="http://www.w3.org/2000/svg" viewBox="0 0 123 123"><defs><style>.cls-1{fill:#fcfcfc;}</style></defs><title>logo-small-light</title><path class="cls-1" d="M28.83,24.15a3.75,3.75,0,0,0-.92-2.55,4.33,4.33,0,0,0-2.22-1.37l-8.3-1.7V15.46H52v3.07l-8.3,1.7a4.06,4.06,0,0,0-2.19,1.41,3.84,3.84,0,0,0-.88,2.51V77.54A36.84,36.84,0,0,0,41,82.48a25.17,25.17,0,0,0,1.3,5.23,22.82,22.82,0,0,0,2.59,5,17.14,17.14,0,0,0,4.21,4.25,20.51,20.51,0,0,0,6.24,2.94,30.36,30.36,0,0,0,8.56,1.08,31,31,0,0,0,8.73-1.11,23,23,0,0,0,6.5-3,19.41,19.41,0,0,0,4.57-4.24,23.44,23.44,0,0,0,4.51-10.13,27.16,27.16,0,0,0,.46-4.81V24.55A3.69,3.69,0,0,0,87.74,22a4.25,4.25,0,0,0-2.19-1.34l-8.3-2.16V15.46h28.36v3.07l-8.3,2.16a4.17,4.17,0,0,0-2.19,1.37,3.74,3.74,0,0,0-.88,2.49V78.46a27.88,27.88,0,0,1-1.5,9.47,26.43,26.43,0,0,1-4.06,7.42,27,27,0,0,1-5.88,5.56,35.74,35.74,0,0,1-7,3.79,38,38,0,0,1-7.28,2.15,37.16,37.16,0,0,1-6.86.69,42.33,42.33,0,0,1-14.25-2.19,30.77,30.77,0,0,1-10.29-5.88,24.32,24.32,0,0,1-8.33-18.33Z"/></svg>